<svg width="264" height="127" viewBox="0 0 264 127" fill="none" xmlns="http://www.w3.org/2000/svg">
<circle cx="80" cy="70" r="33" stroke="#242943" stroke-width="26"/>
<path fill-rule="evenodd" clip-rule="evenodd" d="M182.889 26.617C182.506 25.9212 181.505 25.9271 181.13 26.6274L147 90.5H173.5H193H218L182.889 26.617ZM176.986 73C176.276 73 175.792 72.2812 176.059 71.6236L181.168 59.0483C181.492 58.2513 182.604 58.208 182.989 58.9775L189.276 71.5528C189.609 72.2177 189.125 73 188.382 73H176.986Z" fill="#242943"/>
<path d="M147 90.5L136.815 109.018C136.449 109.685 136.931 110.5 137.691 110.5H163.368C163.754 110.5 164.106 110.278 164.271 109.929L173.5 90.5H147Z" fill="#242943"/>
<path d="M218 90.5H193L202.229 109.929C202.394 110.278 202.746 110.5 203.132 110.5H226.846C227.598 110.5 228.081 109.701 227.731 109.035L218 90.5Z" fill="#242943"/>
<rect x="131" y="95" width="18" height="13" fill="#242943"/>
<path d="M148.763 33.0409C151.318 33.2067 153.816 33.8742 156.113 35.0054C158.411 36.1365 160.463 37.709 162.152 39.6332C163.842 41.5574 165.136 43.7956 165.961 46.2199C166.786 48.6442 167.125 51.2073 166.959 53.7627C166.793 56.3181 166.126 58.8158 164.995 61.1132C163.864 63.4107 162.291 65.4628 160.367 67.1525C158.443 68.8422 156.204 70.1363 153.78 70.961C151.356 71.7858 148.793 72.1249 146.237 71.9591L147.08 58.9765C147.93 59.0317 148.783 58.9188 149.59 58.6443C150.397 58.3698 151.142 57.9391 151.782 57.3767C152.423 56.8144 152.946 56.1314 153.323 55.3667C153.699 54.6021 153.921 53.7708 153.977 52.9202C154.032 52.0697 153.919 51.2167 153.644 50.4098C153.37 49.6029 152.939 48.858 152.377 48.2176C151.814 47.5772 151.131 47.0538 150.367 46.6773C149.602 46.3008 148.771 46.0787 147.92 46.0235L148.763 33.0409Z" fill="#242943"/>
<path d="M147.325 69.0008C152.497 68.9544 157.475 70.9644 161.164 74.5884C164.854 78.2125 166.953 83.1538 166.999 88.3253C167.046 93.4968 165.036 98.4749 161.412 102.164C157.788 105.854 152.846 107.953 147.675 107.999L147.558 94.9428C149.266 94.9275 150.899 94.234 152.097 93.0149C153.294 91.7958 153.958 90.151 153.943 88.4423C153.927 86.7335 153.234 85.1009 152.015 83.9034C150.796 82.706 149.151 82.0419 147.442 82.0572L147.325 69.0008Z" fill="#242943"/>
<rect x="114" y="33" width="18" height="75" rx="1" fill="#242943"/>
<rect x="131" y="33" width="18" height="13" fill="#242943"/>
<rect x="131" y="59" width="18" height="23" fill="#242943"/>
<path d="M144.965 43.9084C147.267 43.81 149.513 44.6174 151.209 46.1529C152.906 47.6885 153.913 49.8265 154.011 52.0966C154.108 54.3667 153.286 56.5829 151.727 58.2577C150.168 59.9325 147.999 60.9287 145.697 61.0272L145.606 58.9154C147.341 58.8412 148.975 58.0908 150.149 56.8292C151.323 55.5676 151.942 53.8982 151.869 52.1882C151.796 50.4782 151.037 48.8676 149.759 47.7109C148.481 46.5542 146.789 45.946 145.055 46.0202L144.965 43.9084Z" fill="#242943"/>
<path d="M145.705 79.9621C148.007 79.8637 150.252 80.6399 151.946 82.1201C153.64 83.6002 154.644 85.6631 154.738 87.8548C154.832 90.0465 154.007 92.1876 152.446 93.807C150.884 95.4264 148.714 96.3915 146.412 96.4899L146.325 94.4511C148.059 94.3769 149.694 93.6499 150.87 92.4301C152.046 91.2102 152.667 89.5974 152.597 87.9464C152.526 86.2954 151.77 84.7415 150.493 83.6265C149.217 82.5115 147.526 81.9268 145.792 82.001L145.705 79.9621Z" fill="#242943"/>
</svg>
