<svg width="302" height="154" viewBox="0 0 302 154" fill="none" xmlns="http://www.w3.org/2000/svg">
<rect width="302" height="154" fill="#41455B"/>
<mask id="mask0" mask-type="alpha" maskUnits="userSpaceOnUse" x="37" y="16" width="178" height="125">
<path d="M140 78.5C140 113.018 116.943 141 88.5 141C60.0573 141 37 113.018 37 78.5C37 43.9822 60.0573 16 88.5 16C116.943 16 140 43.9822 140 78.5Z" fill="#C4C4C4"/>
<path d="M140 78.5C140 113.018 116.943 141 88.5 141C60.0573 141 37 113.018 37 78.5C37 43.9822 60.0573 16 88.5 16C116.943 16 140 43.9822 140 78.5Z" stroke="black"/>
<rect x="112" y="21" width="103" height="112" fill="#C4C4C4"/>
</mask>
<g mask="url(#mask0)">
<path d="M179.461 20.4819H110.347V22.195V24.5933L108.984 23.5655L104.556 21.1671L99.1057 18.7688L91.9523 16.3705L87.1834 15.3426L83.0957 15H80L74.5798 16.0279L71.1734 17.0557L66 19L59.5 22.5L56.6096 24.5092L51.5 28.6206L49.0319 31.1031L44.9443 36.2423L39.494 44.8078L37.4502 49.6045L35.0657 55.429L33.0219 63.9944L32 78.3844V84.2089V86.2646L32.3406 90.376L32.6813 92.7744L33.7032 96.8858L35.747 102.025L38.1315 107.164L40.1753 110.933L44.6036 117.786L46.6474 120.526L50.0538 123.953L56.1853 128.407L60.9542 130.805L66.4045 133.546L72.1953 135.602L77.3049 136.972L82.4144 137.657L87.8647 138H94.3368L98.7651 137.315L104.215 135.602L109.665 133.546L111.369 132.861L112.391 132.175V132.861H179.496L187.331 131.49L192.781 130.462L197.55 128.407L201.638 126.351C202.289 125.845 203.655 123.183 204.363 122.24C205.248 121.06 206 118.918 206 117.443C206 116.263 205.725 111.085 205.725 109.905L203.346 97.4658L199.935 92.7744L195.506 88.3203L190.076 84.7826L179.461 79.1785C182.115 78.2936 189.369 74.7449 190.076 74.273C190.784 73.8011 194.7 71.5887 197.55 69.8189L201.638 62.2813L203 59.883L203.341 46.1783L200.957 40.3538L199.253 36.2423L195.506 30.0752L191.759 25.9638L188.307 23.2228L183.584 21.1671L179.461 20.4819Z" fill="url(#paint0_linear)"/>
<ellipse cx="87" cy="78.5" rx="19" ry="21.5" fill="#41455B"/>
<path d="M102.143 136.431C104.064 135.708 105.651 134.367 107.691 133.967C108.672 133.775 109.619 133.351 110.608 133.216C111.02 133.161 111.566 133.239 111.805 132.857C111.934 132.651 112.05 132.519 112.196 132.323C112.505 131.911 111.883 132.626 111.756 132.745C111.226 133.24 110.807 133.8 110.297 134.309C109.732 134.874 109.032 135.225 108.337 135.599C106.534 136.57 104.969 137.759 102.994 138.379C102.323 138.59 101.66 138.86 100.977 139.025C100.406 139.162 99.8293 139.204 99.2517 139.298C98.4469 139.428 97.6774 139.724 96.8688 139.825C96.1205 139.919 95.362 139.885 94.61 139.9C93.5256 139.921 92.4719 140.096 91.3955 140.204C88.417 140.503 85.3509 140.368 82.3603 140.334C77.8296 140.283 73.3558 139.558 68.8261 139.558C68.1566 139.558 67.3577 139.712 66.7597 139.335C66.2478 139.013 66.2365 138.479 65.9282 137.976C65.3845 137.089 64.8225 136.22 64.6374 135.177C64.5126 134.474 64.0911 134.201 63.719 133.663C63.2703 133.015 62.2748 133.23 61.6216 132.968C61.0919 132.756 60.7374 132.485 60.368 132.075C60.0715 131.745 59.6491 131.192 59.2511 130.982C58.8685 130.781 59.0597 130.852 59.431 130.902C60.2291 131.01 60.9325 131.229 61.6836 131.516C62.8114 131.948 64.0334 132.193 65.1463 132.633C65.592 132.81 66.2343 133.361 66.5673 133.694C66.7046 133.832 66.8355 133.907 66.9583 134.023C67.0259 134.087 67.1959 134.287 67.1072 134.259C66.4228 134.043 65.7505 133.435 65.1028 133.111C64.0233 132.571 62.9685 132.039 61.7953 131.74C60.7215 131.466 60.1718 130.965 59.2697 130.424C58.9064 130.206 58.6057 130.068 59.2511 130.287C59.7036 130.441 60.1617 130.743 60.5914 130.958C60.9911 131.158 61.3831 131.321 61.7084 131.628C61.8668 131.777 62.0535 131.679 62.2111 131.802C62.8456 132.295 63.5059 132.615 64.1782 133.08C64.5735 133.354 65.4316 133.817 65.6737 134.253C66.146 135.103 67.7796 135.231 68.6276 135.481C69.8725 135.849 71.2753 136.249 72.4191 136.865C73.0998 137.232 73.7764 137.613 74.5042 137.939C75.7498 138.497 77.084 138.934 78.395 139.285C79.1944 139.5 81.5621 140.117 80.7345 140.117C80.1005 140.117 79.3738 139.84 78.7735 139.645C78.0279 139.403 77.2514 139.264 76.5147 139C74.7011 138.349 72.8071 137.868 71.0477 137.107C69.3117 136.357 67.4966 135.938 65.6799 135.419C64.2967 135.024 68.3578 136.493 69.7507 136.853C71.5793 137.325 73.3719 137.765 75.2302 138.106C76.8095 138.396 78.3518 138.883 79.9402 139.112C83.889 139.68 87.8365 140.497 91.8547 140.204C93.6902 140.07 95.4476 139.241 97.3032 139.223C99.1396 139.206 100.901 139.212 102.714 139.025C103.907 138.901 105.013 139.155 106.14 138.69C106.817 138.41 107.368 138.373 107.952 137.895C108.058 137.808 108.841 137.486 108.237 137.573C107.142 137.729 106.107 138.109 105.023 138.305C104.165 138.46 103.33 138.382 102.472 138.454C102.035 138.49 101.649 138.651 101.231 138.77C100.39 139.011 99.4966 139.049 98.6311 139.137C96.9103 139.311 95.2313 139.718 93.5178 139.894C92.811 139.966 92.2179 140.527 91.5755 140.669C91.2536 140.741 90.9927 140.913 90.6633 140.986C89.9216 141.149 91.4978 141.055 91.5072 141.054C95.0455 140.722 98.4986 139.87 101.87 138.783C102.551 138.563 103.324 138.437 103.943 138.063C104.214 137.9 104.233 137.828 103.844 137.852C102.477 137.936 101.084 138.296 99.7481 138.566C97.5967 139 95.3986 139.453 93.3192 140.173C91.6575 140.748 90.1418 141.011 88.4107 141.011C86.1476 141.011 83.854 141.301 81.5908 141.097C79.9707 140.952 78.1765 140.633 76.6761 139.98C76.099 139.73 75.3946 139.724 74.7896 139.503C74.5564 139.417 74.3047 139.275 74.0574 139.23C73.483 139.125 75.1935 139.504 75.7701 139.596C82.4018 140.646 89.2156 141.333 95.9317 141.445C98.5262 141.488 101.608 141.811 104.092 140.874C104.784 140.613 106.323 140.262 106.276 139.335C106.235 138.516 105.677 137.771 106.475 137.151C107.138 136.635 108.048 136.441 108.758 135.984C109.075 135.781 109.863 135.465 109.404 134.979C109.076 134.632 109.01 134.259 108.51 134.309C107.297 134.43 106.581 135.825 105.581 136.257C105.528 136.28 104.735 136.721 105.023 136.76C105.972 136.886 106.741 136.011 107.505 135.612C108.131 135.284 108.617 135.036 109.205 134.644C109.53 134.427 109.795 134.125 110.099 133.874C110.265 133.738 109.664 133.829 109.454 133.874C108.704 134.036 108.429 134.373 107.89 134.88C107.166 135.561 106.377 136.057 105.445 136.406C104.572 136.733 103.642 136.903 102.851 137.418C102.7 137.516 102.186 137.66 102.367 137.66C102.734 137.66 103.104 137.671 103.471 137.66C104.348 137.632 105.15 137.239 105.978 136.989C106.352 136.877 106.5 136.759 106.5 136.375C106.5 135.956 105.606 135.677 105.606 135.146C105.606 134.743 104.814 135.771 104.713 135.872C104.336 136.249 103.811 136.881 103.316 137.101C102.844 137.311 102.348 137.545 101.846 137.666C100.93 137.886 100.064 138.324 99.1524 138.578C99.0664 138.602 98.5387 138.777 98.5691 138.777C99.4334 138.758 100.254 138.457 101.026 138.094C101.876 137.695 102.694 137.323 103.602 137.07C104.126 136.924 104.599 136.829 105.072 136.567C105.465 136.35 105.974 136.328 106.326 136.04C106.66 135.766 107.282 135.414 107.282 134.929C107.282 134.071 105.419 135.314 105.103 135.481C103.257 136.459 101.425 137.484 99.4378 138.193C98.6952 138.458 97.9101 138.414 97.1418 138.665C95.8255 139.095 94.3866 138.862 93.0462 139.112C91.4794 139.403 89.7594 139.237 88.1687 139.223C87.3103 139.216 86.5126 138.953 85.6678 138.832C84.8138 138.71 83.8925 138.673 83.0305 138.665C81.2166 138.647 79.5439 138.296 77.8055 137.746C75.3937 136.984 72.9129 136.642 70.4706 136.003C69.1104 135.647 67.8313 135.643 66.4618 135.426C66.0078 135.353 65.0471 134.924 66.015 134.644C66.4353 134.522 67.2113 134.386 67.6285 134.594C68.0847 134.822 68.5604 134.762 69.0681 134.867C69.5068 134.958 69.9324 135.112 70.3651 135.208C70.9476 135.338 71.6279 135.808 72.1957 136.04C72.3266 136.094 72.8318 136.183 72.9156 136.294C73.0248 136.44 72.5507 136.311 72.3695 136.294C71.7058 136.233 71.1884 136.041 70.5885 135.767C69.603 135.317 68.6743 134.904 67.6347 134.644C67.2062 134.537 66.943 134.063 66.5673 133.98C66.4744 133.959 66.0896 133.758 66.3625 133.663C66.7547 133.528 67.3094 133.673 67.6781 133.806C68.2676 134.018 68.5542 134.569 69.124 134.749C69.4387 134.849 69.6668 135.178 69.999 135.314C70.5003 135.519 70.9481 135.79 71.4573 135.984C72.4476 136.361 73.5968 136.726 74.4855 137.318C74.9215 137.609 75.339 138.037 75.8383 138.274C76.0588 138.378 76.7412 138.644 76.5147 138.553C75.8685 138.295 75.3505 137.958 74.7462 137.616C74.3227 137.377 73.805 136.772 73.4368 136.437C73.3153 136.327 73.0841 136.208 73.0148 136.052C73.0053 136.031 74.7764 136.409 74.8641 136.431C76.2572 136.779 77.6624 136.986 79.0776 137.213C80.2203 137.396 81.4809 137.443 82.5961 137.722C82.894 137.796 83.2109 137.95 83.4897 138.082C83.5781 138.123 82.7804 138.218 82.6085 138.218C81.8432 138.218 81.0778 138.218 80.3125 138.218C79.523 138.218 79.2322 137.881 78.4757 137.684C77.3138 137.382 76.1692 136.946 75.0006 136.679C74.4485 136.553 73.8072 136.714 73.2693 136.822C73.1465 136.846 71.9999 136.981 72.4191 136.989C73.6779 137.014 74.9527 137.397 76.1921 137.598C76.5168 137.65 77.4298 137.673 77.6566 137.995C77.8195 138.226 78.0738 138.195 78.3205 138.224C79.9174 138.412 81.5553 138.925 83.1298 139.273C84.5372 139.584 85.8278 139.894 87.2875 139.894C87.8998 139.894 88.512 139.894 89.1243 139.894C89.5274 139.894 90.5252 139.894 89.509 139.894C87.4227 139.894 85.5115 140.08 83.5704 139.217C83.2042 139.054 82.7582 138.819 82.5341 138.466C82.3153 138.123 83.8638 138.05 83.9365 138.044C86.1744 137.876 88.4584 137.995 90.7005 137.995C92.3997 137.995 90.4472 138.064 89.9434 138.156C89.182 138.296 88.4472 138.505 87.6784 138.609C87.12 138.685 86.559 138.665 85.9967 138.665C85.6375 138.665 85.4453 138.665 86.0464 138.665C87.8535 138.665 89.8513 138.917 91.6437 138.603C92.374 138.475 93.1081 138.418 93.8405 138.305C94.6176 138.185 95.3461 137.813 96.1365 137.778C97.0084 137.738 97.8962 137.67 98.7677 137.66C99.4467 137.651 100.244 137.787 100.902 137.604C101.34 137.482 102.573 136.989 102.119 136.989C101.094 136.989 100.252 137.378 99.2641 137.61C97.794 137.955 96.3405 138.408 94.8954 138.851C94.1071 139.093 91.7003 139.558 92.5249 139.558C94.8571 139.558 97.3282 138.874 99.5744 138.305C100.583 138.049 101.615 137.267 102.416 136.611C102.429 136.601 102.765 136.433 102.739 136.431C102.082 136.38 101.339 136.421 100.778 136.766C100.131 137.164 99.0592 137.49 98.3209 137.635C97.7046 137.755 97.1456 137.805 96.5337 138.001C95.8524 138.219 95.0215 138.526 94.2997 138.553C92.4908 138.62 90.6857 138.442 88.8761 138.442C88.3604 138.442 88.7806 138.637 89.0498 138.721C90.2333 139.088 91.6246 138.885 92.8476 139C93.8761 139.097 94.9772 139.221 96.0062 139.05C97.0062 138.883 97.9744 138.543 98.9662 138.33C101.832 137.714 104.442 136.237 107.294 135.599C107.998 135.442 108.446 134.964 109.069 134.669C109.485 134.471 109.709 134.093 110.186 133.974" stroke="url(#paint1_linear)" stroke-linecap="round" stroke-linejoin="round"/>
<path d="M110.637 23.7165C109.696 22.9368 109.282 21.7133 108.527 20.7761C108.154 20.3131 107.655 20.0616 107.144 19.7831C106.607 19.4912 106.074 19.1836 105.554 18.864C105.159 18.6215 104.828 18.3604 104.377 18.2257C103.425 17.9407 102.366 17.8459 101.452 17.4455C100.597 17.0711 99.7301 16.9349 98.8393 16.6919C98.6861 16.6501 98.5622 16.5461 98.396 16.5087C98.0471 16.4302 97.6951 16.3631 97.3439 16.2959C96.7941 16.1908 96.2473 16.0485 95.7127 15.8851C95.5365 15.8313 95.3892 15.7225 95.1984 15.6724C94.4388 15.4728 93.6171 15.5031 92.8668 15.2852C92.8133 15.2697 92.5033 15.0763 92.5033 15.2113C92.5033 15.4029 92.5653 15.622 92.6451 15.7906C92.6776 15.8591 92.8082 15.9412 92.7515 15.9915C92.6787 16.0562 92.1567 16.0314 92.0482 16.0004C91.6353 15.8824 92.3394 16.2297 92.4323 16.3107C92.6762 16.5231 93.0552 16.5417 93.3396 16.6949C93.6012 16.8357 93.8782 16.9711 94.173 17.0377C94.5019 17.1119 94.8195 17.1736 95.1571 17.1736C95.4692 17.1736 95.7652 17.2644 96.0614 17.28C96.4248 17.2991 96.5879 17.6157 96.9066 17.7026C97.0777 17.7493 97.2098 17.8565 97.3735 17.9183C97.8331 18.092 98.2984 18.2344 98.7743 18.3557C99.4438 18.5264 100.141 18.8376 100.769 19.1152C101.02 19.2262 101.276 19.328 101.523 19.4492C101.704 19.5385 101.945 19.5963 102.114 19.6974C102.23 19.7674 102.311 19.8775 102.439 19.9397C102.645 20.04 102.869 20.0821 103.071 20.1939C103.337 20.3408 103.631 20.3815 103.854 20.6047C104.152 20.9026 104.507 21.1707 104.862 21.3967C105.225 21.6274 105.62 21.8316 105.967 22.0793C106.534 22.4834 107.153 22.7192 107.764 23.025C108.221 23.2536 108.666 23.4675 109.165 23.6338C109.459 23.7317 109.797 24.0186 110.105 24.0357C110.441 24.0544 110.581 23.9009 110.64 23.5806C110.734 23.0629 110.849 22.5894 110.849 22.0557C110.849 21.7582 110.849 21.4607 110.849 21.1632C110.849 20.9017 110.992 20.69 111.21 20.9622C111.252 21.0143 111.222 21.1779 111.222 21.243C111.222 21.4576 111.289 21.6153 111.408 21.7986C111.568 22.0454 111.807 22.2454 111.807 22.5462C111.807 23.2924 110.245 22.5963 110.093 22.3335C109.943 22.0753 109.581 21.8912 109.357 21.6951C109.166 21.5277 108.917 21.4632 108.71 21.3228C108.506 21.1848 108.294 21.0114 108.083 20.8972C107.672 20.6747 107.173 20.5394 106.88 20.1821C106.78 20.059 106.553 19.9795 106.422 19.8865C106.255 19.7672 106.09 19.6493 105.926 19.526C105.32 19.0712 104.492 19.0429 103.843 18.6719C103.529 18.4926 103.044 18.3459 102.696 18.2464C102.42 18.1675 102.184 17.9897 101.889 17.9183C101.612 17.8511 101.396 17.6445 101.133 17.5342C100.609 17.3148 100.061 17.1342 99.5249 16.949C98.494 16.593 97.3987 16.3945 96.3805 16.0093C96.1827 15.9344 96.2664 15.9766 96.3628 16.1038C96.528 16.3219 96.6132 16.6236 96.8327 16.7953C97.0336 16.9526 97.26 17.0883 97.4681 17.2386C97.7734 17.4592 98.072 17.5254 98.4137 17.6642C98.9521 17.8829 99.581 18.0896 100.137 18.2345C100.395 18.3019 100.631 18.3659 100.861 18.5035C100.985 18.5783 101.154 18.5851 101.251 18.7044C101.306 18.7725 101.319 18.8318 101.404 18.8758C102.018 19.1916 102.716 19.3154 103.346 19.591C103.442 19.6332 103.65 19.6336 103.721 19.6974C103.911 19.8671 104.162 19.9798 104.389 20.0993C105.097 20.4709 105.616 21.0854 106.275 21.509C106.438 21.6141 106.615 21.7571 106.765 21.8784C106.938 22.0171 107.139 22.1399 107.297 22.2921C107.684 22.6651 108.258 22.7724 108.692 23.0486C108.776 23.1018 108.865 23.1075 108.946 23.1728C109.119 23.3111 108.903 22.7096 108.881 22.6763C108.732 22.4478 108.591 22.2647 108.435 22.0409C108.295 21.8399 108.124 21.736 107.95 21.5621C107.85 21.4622 107.731 21.42 107.634 21.3228C107.437 21.1258 107.166 20.9489 106.925 20.8145C106.717 20.6988 106.532 20.6293 106.328 20.4983C106.063 20.3279 105.694 20.224 105.4 20.1023C104.866 19.8815 104.395 19.4571 103.893 19.1536C103.464 18.8941 103.137 18.7032 102.628 18.5803C102.244 18.4876 101.581 18.457 101.274 18.1843C101.169 18.0903 101.026 18.0423 100.929 17.9449C100.838 17.8545 100.687 17.8573 100.609 17.7794C99.4111 16.5811 97.485 16.5395 95.9313 16.1511C95.218 15.9728 94.51 15.8299 93.8272 15.5541C93.7125 15.5078 93.3223 15.3066 93.2568 15.5246C93.2356 15.5953 93.2953 15.6424 93.2953 15.7108C93.2953 15.7816 93.4036 15.8669 93.443 15.9502C93.5024 16.0755 93.6226 16.1369 93.7326 16.2161C93.8336 16.2888 93.9147 16.4181 94.0163 16.4762C94.101 16.5246 94.3461 16.4821 94.436 16.4821C94.8086 16.4821 95.1716 16.6445 95.5176 16.7599C95.6717 16.8113 95.8267 16.823 95.9816 16.8574C96.1206 16.8883 96.2224 16.9925 96.3569 17.017C96.3765 17.0206 96.6761 17.1264 96.6761 17.1204C96.6761 17.0968 96.3219 16.8997 96.2741 16.8545C96.176 16.7615 96.0105 16.5689 95.8959 16.5116C95.6032 16.3653 95.1526 16.3676 94.894 16.1866C94.7158 16.0618 94.4981 16.1342 94.2941 16.0979C94.0402 16.0528 93.7685 16.0625 93.5199 15.9915C92.977 15.8364 92.4679 15.7906 91.9093 15.7906C91.5973 15.7906 91.8504 15.8306 91.995 15.897C92.4826 16.121 93.1695 16.109 93.6972 16.2043C94.8589 16.4141 96.0567 16.5694 97.1666 16.9963C97.586 17.1576 97.9909 17.3625 98.4196 17.4987C98.8274 17.6282 99.2557 17.6896 99.6668 17.812C100.671 18.1107 101.633 18.5324 102.657 18.7694C103.646 18.9983 104.642 19.0665 105.613 19.39C106.009 19.522 106.335 19.8004 106.694 20.0047C107.011 20.1853 107.336 20.3532 107.658 20.5249" stroke="url(#paint2_linear)" stroke-linecap="round" stroke-linejoin="round"/>
</g>
<path d="M138.279 97.4875C138.279 95.8306 139.622 94.4875 141.279 94.4875H169.343C171 94.4875 172.343 95.8306 172.343 97.4875V110.674C172.343 112.331 171 113.674 169.343 113.674H141.279C139.622 113.674 138.279 112.331 138.279 110.674V97.4875Z" fill="#41455B"/>
<path d="M138.279 44.039C138.279 42.3821 139.622 41.039 141.279 41.039H169.343C171 41.039 172.343 42.3821 172.343 44.039V57.2256C172.343 58.8825 171 60.2256 169.343 60.2256H141.279C139.622 60.2256 138.279 58.8825 138.279 57.2256V44.039Z" fill="#41455B"/>
<path d="M201.153 39.6639L210.189 22.5191C210.955 21.0647 213.051 21.1049 213.762 22.5876L268.628 137.136C269.264 138.464 268.296 140 266.824 140H238.66C237.901 140 237.207 139.57 236.869 138.891L222.883 110.774C222.545 110.094 221.852 109.665 221.092 109.665H205.527V118.709C205.527 119.037 205.447 119.36 205.293 119.649L202.679 124.556C202.523 124.849 202.296 125.099 202.019 125.283L199.354 127.048L195.435 128.996C195.305 129.06 195.168 129.111 195.027 129.146L189.752 130.456L186.158 138.792C185.842 139.525 185.12 140 184.321 140H154.245C152.756 140 151.789 138.431 152.458 137.101L154.218 133.603C154.558 132.927 155.249 132.501 156.005 132.501H165.746H169.519H178.93C179.057 132.501 179.184 132.489 179.308 132.465L189.752 130.456L195.027 129.146C195.168 129.111 195.305 129.06 195.435 128.996L199.354 127.048L202.019 125.283C202.296 125.099 202.523 124.849 202.679 124.556L205.293 119.649C205.447 119.36 205.527 119.037 205.527 118.709V109.665L204.499 104.893L203.813 101.485L203.201 98.139C203.152 97.8726 203.05 97.6189 202.9 97.3932L200.812 94.2465C200.755 94.1603 200.691 94.0787 200.621 94.0023L197.409 90.4904C197.334 90.4088 197.253 90.3334 197.166 90.2652L191.595 85.9059C191.51 85.8392 191.419 85.7795 191.324 85.7274L183.214 81.2802C182.27 80.7624 181.905 79.5898 182.389 78.6277L182.594 78.2209C182.788 77.8343 183.103 77.5213 183.49 77.3287L184.951 76.6028L189.066 74.5577L196.858 69.7175C197.146 69.5388 197.384 69.29 197.549 68.9944L202.213 60.6505C202.363 60.382 202.449 60.0824 202.464 59.7752L203.105 47.0376C203.119 46.7547 203.073 46.4721 202.97 46.2083L201.06 41.3252C200.848 40.7842 200.882 40.1779 201.153 39.6639Z" fill="url(#paint3_linear)"/>
<path d="M204.464 78.3929L210.808 67.133C211.535 65.8422 213.365 65.7627 214.201 66.9854L221.905 78.2453C222.813 79.5727 221.863 81.3747 220.254 81.3747H206.206C204.676 81.3747 203.713 79.7261 204.464 78.3929Z" fill="#41455B"/>
<path d="M172.545 111.802V99L165 113.997H170.83H171.173L171.859 113.631L172.202 113.266L172.545 112.534V111.802Z" fill="#2D2A72"/>
<defs>
<linearGradient id="paint0_linear" x1="1.00193" y1="-11.3816" x2="203.274" y2="108.872" gradientUnits="userSpaceOnUse">
<stop stop-color="#B75A5A"/>
<stop offset="0.639958" stop-color="#102077" stop-opacity="0.89"/>
<stop offset="0.802523" stop-color="#2D2A72"/>
</linearGradient>
<linearGradient id="paint1_linear" x1="55.5" y1="125.5" x2="113.5" y2="144.5" gradientUnits="userSpaceOnUse">
<stop stop-color="#4C407B"/>
<stop offset="0.170777" stop-color="#2D2C70"/>
<stop offset="0.39145" stop-color="#202872"/>
<stop offset="0.623824" stop-color="#182574"/>
<stop offset="0.791492" stop-color="#1C2574"/>
<stop offset="1" stop-color="#1E2773"/>
</linearGradient>
<linearGradient id="paint2_linear" x1="91.5" y1="15.5" x2="113" y2="24.5" gradientUnits="userSpaceOnUse">
<stop stop-color="#50386B"/>
<stop offset="1" stop-color="#39306E"/>
</linearGradient>
<linearGradient id="paint3_linear" x1="224.389" y1="85.4648" x2="295.572" y2="117.832" gradientUnits="userSpaceOnUse">
<stop stop-color="#2D2A72"/>
<stop offset="1" stop-color="white"/>
</linearGradient>
</defs>
</svg>
